<svg width="24" height="23" viewBox="0 0 24 23" fill="none" xmlns="http://www.w3.org/2000/svg">
<ellipse cx="12.4262" cy="11.5" rx="11.4653" ry="11.5" fill="#044389"/>
<path d="M10.2657 14.75H14.9183C15.2268 14.75 15.5226 14.6271 15.7408 14.4083C15.9589 14.1895 16.0814 13.8928 16.0814 13.5833V12.4167H9.1026V13.5833C9.1026 13.8928 9.22514 14.1895 9.44327 14.4083C9.6614 14.6271 9.95725 14.75 10.2657 14.75ZM15.3911 15.8683C15.5043 16.0445 15.568 16.2481 15.5756 16.4576C15.5832 16.667 15.5344 16.8747 15.4343 17.0588C15.3342 17.2428 15.1866 17.3964 15.0068 17.5033C14.8271 17.6103 14.6219 17.6667 14.4129 17.6667H10.7717C10.5627 17.6667 10.3575 17.6103 10.1778 17.5033C9.99807 17.3964 9.85039 17.2428 9.75029 17.0588C9.65019 16.8747 9.60138 16.667 9.60898 16.4576C9.61659 16.2481 9.68033 16.0445 9.7935 15.8683C9.26969 15.7592 8.79933 15.4725 8.46163 15.0563C8.12393 14.6401 7.93952 14.1199 7.93945 13.5833V8.33333C7.93945 7.71449 8.18454 7.121 8.62081 6.68342C9.05707 6.24583 9.64877 6 10.2657 6H14.9183C15.5353 6 16.127 6.24583 16.5632 6.68342C16.9995 7.121 17.2446 7.71449 17.2446 8.33333V13.5833C17.2445 14.1198 17.0602 14.64 16.7226 15.0561C16.3851 15.4723 15.9148 15.7591 15.3911 15.8683ZM16.0814 11.25V8.33333C16.0814 8.02391 15.9589 7.72717 15.7408 7.50838C15.5226 7.28958 15.2268 7.16667 14.9183 7.16667H10.2657C9.95725 7.16667 9.6614 7.28958 9.44327 7.50838C9.22514 7.72717 9.1026 8.02391 9.1026 8.33333V11.25H16.0814ZM14.9183 7.75C15.0725 7.75 15.2205 7.81146 15.3295 7.92085C15.4386 8.03025 15.4999 8.17862 15.4999 8.33333V10.0833C15.4999 10.238 15.4386 10.3864 15.3295 10.4958C15.2205 10.6052 15.0725 10.6667 14.9183 10.6667C14.7641 10.6667 14.6161 10.6052 14.5071 10.4958C14.398 10.3864 14.3367 10.238 14.3367 10.0833V8.33333C14.3367 8.17862 14.398 8.03025 14.5071 7.92085C14.6161 7.81146 14.7641 7.75 14.9183 7.75ZM10.2657 14.1667C10.1115 14.1667 9.96357 14.1052 9.8545 13.9958C9.74544 13.8864 9.68417 13.738 9.68417 13.5833C9.68417 13.4286 9.74544 13.2803 9.8545 13.1709C9.96357 13.0615 10.1115 13 10.2657 13C10.42 13 10.5679 13.0615 10.677 13.1709C10.786 13.2803 10.8473 13.4286 10.8473 13.5833C10.8473 13.738 10.786 13.8864 10.677 13.9958C10.5679 14.1052 10.42 14.1667 10.2657 14.1667ZM14.9183 14.1667C14.7641 14.1667 14.6161 14.1052 14.5071 13.9958C14.398 13.8864 14.3367 13.738 14.3367 13.5833C14.3367 13.4286 14.398 13.2803 14.5071 13.1709C14.6161 13.0615 14.7641 13 14.9183 13C15.0725 13 15.2205 13.0615 15.3295 13.1709C15.4386 13.2803 15.4999 13.4286 15.4999 13.5833C15.4999 13.738 15.4386 13.8864 15.3295 13.9958C15.2205 14.1052 15.0725 14.1667 14.9183 14.1667ZM10.7711 16.5H14.4129L14.0256 15.9167H11.1584L10.7711 16.5Z" fill="white"/>
</svg>
