<svg width="37" height="26" viewBox="0 0 37 26" fill="none" xmlns="http://www.w3.org/2000/svg">
<path fill-rule="evenodd" clip-rule="evenodd" d="M33.3908 21.948C33.8321 21.948 34.2552 22.1233 34.5673 22.4353C34.8793 22.7473 35.0546 23.1705 35.0546 23.6118C35.0546 24.0531 34.8793 24.4762 34.5673 24.7883C34.2552 25.1003 33.8321 25.2756 33.3908 25.2756H1.77902C1.33776 25.2756 0.914573 25.1003 0.602554 24.7883C0.290535 24.4762 0.115245 24.0531 0.115245 23.6118C0.115245 23.1705 0.290535 22.7473 0.602554 22.4353C0.914573 22.1233 1.33776 21.948 1.77902 21.948H33.3908ZM18.4168 0.318909C23.7808 0.318909 28.303 2.10747 31.5074 4.62643C34.6536 7.0988 36.7184 10.443 36.7184 13.6291C36.7184 15.03 36.2891 16.2246 35.5321 17.1896C34.795 18.1313 33.8117 18.7702 32.8101 19.2094C30.8369 20.0713 28.4893 20.2842 26.7357 20.2842H3.43282C2.99637 20.284 2.56425 20.1977 2.16119 20.0303C1.75813 19.8629 1.39205 19.6176 1.08389 19.3085C0.775741 18.9995 0.53157 18.6326 0.365356 18.2291C0.199143 17.8255 0.114151 17.3931 0.115245 16.9567V3.64646C0.115245 1.81464 1.59601 0.318909 3.43947 0.318909H18.4168ZM10.0979 3.64646H3.4428V8.6378H10.0979V3.64646ZM18.4168 3.64646H13.4255V8.6378H20.0806V3.71302C19.7141 3.68335 19.3468 3.66393 18.9792 3.65478L18.4168 3.64646ZM23.4081 4.28369V8.6378H30.98C30.5063 8.13451 29.9952 7.66787 29.451 7.24189C27.8504 5.98407 25.8073 4.92092 23.4081 4.28369Z" fill="#0F782C"/>
</svg>
