<svg width="12" height="13" viewBox="0 0 12 13" fill="none" xmlns="http://www.w3.org/2000/svg">
<path d="M10.4131 8.12517C10.8385 7.32622 11.0604 6.4347 11.0591 5.52954C11.0591 2.47561 8.58348 0 5.52955 0C2.47562 0 8.11141e-06 2.47561 8.11141e-06 5.52954C-0.00223026 6.83395 0.458861 8.09676 1.30108 9.09284L1.30758 9.10097C1.30986 9.10292 1.31181 9.10553 1.31344 9.10748H1.30108L4.58237 12.5911C4.70401 12.7202 4.85077 12.8231 5.01362 12.8934C5.17648 12.9637 5.35199 13 5.52939 13C5.70678 13 5.88229 12.9637 6.04515 12.8934C6.20801 12.8231 6.35476 12.7202 6.4764 12.5911L9.75802 9.10748H9.74566L9.75086 9.1013L9.75151 9.10065C9.77493 9.07267 9.79835 9.0447 9.82145 9.01608C10.0471 8.73879 10.2453 8.44032 10.4134 8.12485L10.4131 8.12517ZM5.53085 7.64378C5.01325 7.64378 4.51685 7.43816 4.15086 7.07216C3.78486 6.70617 3.57925 6.20977 3.57925 5.69217C3.57925 5.17458 3.78486 4.67818 4.15086 4.31218C4.51685 3.94619 5.01325 3.74057 5.53085 3.74057C6.04845 3.74057 6.54484 3.94619 6.91084 4.31218C7.27684 4.67818 7.48245 5.17458 7.48245 5.69217C7.48245 6.20977 7.27684 6.70617 6.91084 7.07216C6.54484 7.43816 6.04845 7.64378 5.53085 7.64378Z" fill="#B7B7B7"/>
</svg>
