<svg width="66" height="66" viewBox="0 0 66 66" fill="none" xmlns="http://www.w3.org/2000/svg">
<g filter="url(#filter0_d_33_196)">
<circle cx="32.8288" cy="30.8288" r="29.8288" fill="#044389"/>
</g>
<path d="M34.0154 19.2994C33.7006 18.9849 33.2737 18.8082 32.8287 18.8082C32.3837 18.8082 31.9569 18.9849 31.642 19.2994L25.3065 25.6315C24.9914 25.9465 24.8145 26.3738 24.8145 26.8194C24.8145 27.2649 24.9914 27.6922 25.3065 28.0072C25.6215 28.3222 26.0488 28.4992 26.4943 28.4992C26.9398 28.4992 27.3671 28.3222 27.6822 28.0072L31.1494 24.5411V37.4551C31.1494 37.9004 31.3263 38.3276 31.6413 38.6425C31.9562 38.9574 32.3833 39.1344 32.8287 39.1344C33.2741 39.1344 33.7012 38.9574 34.0162 38.6425C34.3311 38.3276 34.508 37.9004 34.508 37.4551V24.5411L37.9742 28.0072C38.1301 28.1632 38.3153 28.2869 38.5191 28.3713C38.7229 28.4558 38.9414 28.4992 39.162 28.4992C39.3826 28.4992 39.601 28.4558 39.8048 28.3713C40.0087 28.2869 40.1938 28.1632 40.3498 28.0072C40.5058 27.8512 40.6296 27.666 40.714 27.4622C40.7984 27.2584 40.8419 27.04 40.8419 26.8194C40.8419 26.5987 40.7984 26.3803 40.714 26.1765C40.6296 25.9727 40.5058 25.7875 40.3498 25.6315L34.0154 19.2994Z" fill="white"/>
<circle cx="32.8281" cy="41.7078" r="1.75" fill="white"/>
<defs>
<filter id="filter0_d_33_196" x="0.328767" y="0.109589" width="64.9997" height="65" filterUnits="userSpaceOnUse" color-interpolation-filters="sRGB">
<feFlood flood-opacity="0" result="BackgroundImageFix"/>
<feColorMatrix in="SourceAlpha" type="matrix" values="0 0 0 0 0 0 0 0 0 0 0 0 0 0 0 0 0 0 127 0" result="hardAlpha"/>
<feOffset dy="1.78082"/>
<feGaussianBlur stdDeviation="1.33562"/>
<feComposite in2="hardAlpha" operator="out"/>
<feColorMatrix type="matrix" values="0 0 0 0 0 0 0 0 0 0 0 0 0 0 0 0 0 0 0.3 0"/>
<feBlend mode="normal" in2="BackgroundImageFix" result="effect1_dropShadow_33_196"/>
<feBlend mode="normal" in="SourceGraphic" in2="effect1_dropShadow_33_196" result="shape"/>
</filter>
</defs>
</svg>
