<svg width="41" height="41" viewBox="0 0 41 41" fill="none" xmlns="http://www.w3.org/2000/svg">
<rect width="41" height="41" rx="13.0159" fill="#18D04C"/>
<path d="M22.9447 21.0416C22.6145 22.2739 21.3479 23.0052 20.1156 22.675C18.8833 22.3448 18.152 21.0782 18.4822 19.8459C18.8124 18.6136 20.079 17.8823 21.3113 18.2125C22.5436 18.5427 23.2749 19.8094 22.9447 21.0416Z" fill="white"/>
<path fill-rule="evenodd" clip-rule="evenodd" d="M8.56401 25.9796C8.56445 25.9805 8.5649 25.9815 8.56534 25.9825L13.1611 23.887C12.3644 22.1399 12.1982 20.1705 12.6908 18.3145C13.1834 16.4586 14.3043 14.8308 15.8625 13.7086C16.3799 13.3359 16.935 13.0267 17.5158 12.7842C18.6839 12.2967 19.9562 12.0794 21.2362 12.1603C23.1526 12.2813 24.9677 13.0631 26.3723 14.3724C27.7769 15.6817 28.6841 17.4376 28.9393 19.3408C29.1097 20.6119 28.9822 21.8963 28.5778 23.0957C28.3767 23.6921 28.1071 24.2675 27.7717 24.8098C26.7615 26.4429 25.2164 27.6752 23.3996 28.2967C21.5827 28.9183 19.6065 28.8906 17.8078 28.2185L16.0398 32.9499C16.5194 33.1291 17.0067 33.2798 17.4995 33.402C19.9798 34.0171 22.5963 33.9098 25.0345 33.0757C25.9366 32.7671 26.7972 32.3648 27.6036 31.8789C28.9623 31.0601 30.1674 30.0038 31.1593 28.7574C31.4857 28.3473 31.7891 27.9165 32.0672 27.4668C33.6921 24.84 34.3558 21.731 33.9454 18.6696C33.5349 15.6082 32.0757 12.7838 29.8163 10.6777C27.5569 8.57163 24.6372 7.31409 21.5545 7.1194C18.4719 6.9247 15.4171 7.8049 12.9107 9.61C12.4817 9.91898 12.0732 10.2518 11.687 10.6062C10.5133 11.6831 9.54407 12.9593 8.82264 14.3721C8.39445 15.2106 8.05354 16.0972 7.80894 17.0189C7.14791 19.5095 7.22441 22.1271 8.01199 24.5582C8.16812 25.0401 8.35219 25.5147 8.56401 25.9796Z" fill="white"/>
<path d="M13.1939 25.744C12.7055 27.0511 11.2499 27.7148 9.94274 27.2264C8.63561 26.7379 7.97192 25.2823 8.46035 23.9752C8.94878 22.6681 10.4044 22.0044 11.7115 22.4928C13.0186 22.9812 13.6823 24.4368 13.1939 25.744Z" fill="white"/>
<path d="M19.2183 31.4408C18.7299 32.7479 17.2743 33.4116 15.9672 32.9232C14.66 32.4348 13.9963 30.9792 14.4848 29.672C14.9732 28.3649 16.4288 27.7012 17.7359 28.1896C19.043 28.6781 19.7067 30.1337 19.2183 31.4408Z" fill="white"/>
</svg>
